<svg viewBox="0 0 511.99965 511" xmlns="http://www.w3.org/2000/svg"><g fill-rule="evenodd"><path d="m441.527344 57.894531 13.046875 13.050781 10.707031 10.703126 36.703125-36.703126-34.460937-34.460937-36.703126 36.703125zm0 0" fill="#ffcf33"/><path d="m403.082031 126.574219 26.457031-28.578125 25.035157-27.050782-13.046875-13.050781-27.050782 25.039063-28.582031 26.457031-41.027343 37.976563-166.589844 154.203124 32.625 32.625 154.203125-166.589843zm0 0" fill="#ffcfac"/><path d="m340.285156 330.035156c7.78125-45.015625 78.109375-93.441406 28.238282-159.007812l-3.417969-3.421875-154.203125 166.589843-32.625-32.625 166.589844-154.203124-3.421876-3.421876c-65.566406-49.867187-113.992187 20.460938-159.007812 28.242188 67.199219 55.480469-75.066406 118.378906-72.585938 42.964844 0 0-30.546874 12.132812-64.332031 45.917968-51.148437 51.148438-46.519531 138.703126 10.332031 195.550782 56.847657 56.855468 144.398438 61.480468 195.550782 10.328125 33.78125-33.78125 45.914062-64.328125 45.914062-64.328125-75.40625 2.480468-12.511718-139.785156 42.96875-72.585938zm-235.195312 41.863282 35.480468 35.480468-20.546874 20.546875-35.480469-35.480469zm0 0" fill="#fd4848"/><path d="m84.539062 392.445312 20.546876-20.546874 35.480468 35.480468-20.546875 20.546875zm0 0" fill="#ffcf33"/></g><path d="m215.699219 480.480469c-47.9375 23.804687-110.75 11.089843-152.757813-30.910157 0-.003906-.003906-.003906-.003906-.007812-.003906-.003906-.007812-.003906-.011719-.007812-25.742187-25.746094-40.917969-58.898438-42.742187-93.359376-1.800782-34.066406 9.714844-65.332031 32.421875-88.039062 19.199219-19.203125 37.394531-31.128906 48.820312-37.574219 3.597657 14.203125 13.191407 24.015625 27.632813 27.734375 12.753906 3.28125 28.585937 1.289063 43.441406-5.46875 14.953125-6.800781 27.054688-17.621094 33.203125-29.695312 7.84375-15.398438 6.003906-31.613282-4.800781-46.144532 10.238281-4.253906 20.398437-10.339843 30.941406-16.648437 4.945312-2.960937 10.058594-6.023437 15.160156-8.867187 4.824219-2.691407 6.554688-8.78125 3.867188-13.605469-2.691406-4.824219-8.78125-6.554688-13.605469-3.863281-5.371094 2.996093-10.621094 6.136718-15.695313 9.175781-14.601562 8.742187-28.394531 17-40.820312 19.148437-3.851562.664063-6.960938 3.511719-7.964844 7.285156-1 3.777344.289063 7.789063 3.300782 10.277344 13.636718 11.261719 17.605468 22.757813 11.792968 34.164063-8.636718 16.960937-35.804687 29.519531-53.832031 24.871093-9.980469-2.566406-14.621094-10.238281-14.1875-23.449218.109375-3.371094-1.484375-6.570313-4.242187-8.511719-2.757813-1.9375-6.308594-2.355469-9.441407-1.109375-1.328125.523438-32.871093 13.292969-67.714843 48.136719-26.769532 26.769531-40.351563 63.433593-38.25 103.238281 1.914062 36.210938 16.648437 71.066406 41.71875 99.175781l-12.269532 12.269531c-3.90625 3.90625-3.90625 10.238282 0 14.144532 1.953125 1.953125 4.511719 2.929687 7.070313 2.929687 2.558593 0 5.117187-.976562 7.070312-2.929687l12.265625-12.265625c22.574219 20.144531 49.488282 33.621093 78.410156 39.171875 9.460938 1.816406 18.984376 2.714844 28.414063 2.714844 21.746094 0 42.980469-4.773438 61.703125-14.066407 4.945312-2.457031 6.964844-8.457031 4.507812-13.40625-2.457031-4.945312-8.453124-6.964843-13.402343-4.507812zm0 0"/><path d="m267.304688 141.054688c1.089843 0 2.195312-.179688 3.28125-.554688l.363281-.125c5.230469-1.78125 8.023437-7.460938 6.246093-12.6875-1.777343-5.230469-7.460937-8.023438-12.6875-6.246094l-.480468.164063c-5.21875 1.8125-7.980469 7.511719-6.167969 12.726562 1.433594 4.132813 5.304687 6.722657 9.445313 6.722657zm0 0"/><path d="m248.46875 455.5-.296875.316406c-3.753906 4.050782-3.515625 10.375.535156 14.132813 1.925781 1.785156 4.363281 2.667969 6.796875 2.667969 2.683594 0 5.363282-1.078126 7.335938-3.203126l.296875-.320312c3.753906-4.050781 3.515625-10.378906-.535157-14.132812-4.050781-3.753907-10.378906-3.515626-14.132812.539062zm0 0"/><path d="m509.070312 37.886719-34.460937-34.457031c-3.90625-3.90625-10.234375-3.90625-14.140625 0l-36.703125 36.703124c-3.90625 3.902344-3.90625 10.234376 0 14.140626l3.355469 3.355468-12.363282 11.445313-7.464843-7.464844c-3.90625-3.902344-10.234375-3.902344-14.140625 0-3.90625 3.90625-3.90625 10.238281 0 14.144531l6.914062 6.917969-13.890625 12.855469-7.460937-7.460938c-3.90625-3.902344-10.234375-3.902344-14.140625 0-3.90625 3.90625-3.90625 10.238282 0 14.144532l6.914062 6.914062-26.792969 24.800781c-12.476562-8.9375-25.347656-14.546875-38.304687-16.679687-5.445313-.898438-10.597656 2.796875-11.492187 8.246094-.894532 5.449218 2.796874 10.59375 8.246093 11.488281 8.914063 1.464843 17.636719 5.042969 26.507813 10.871093l-158.15625 146.394532c-1.996094 1.847656-3.152344 4.425781-3.207032 7.144531-.050781 2.71875 1.007813 5.339844 2.929688 7.265625l32.625 32.625c1.878906 1.878906 4.421875 2.929688 7.070312 2.929688h.195313c2.71875-.054688 5.296875-1.210938 7.144531-3.207032l146.394532-158.15625c24.0625 36.722656 6.273437 66.441406-12.507813 97.8125-6.3125 10.539063-12.398437 20.703125-16.648437 30.9375-14.53125-10.804687-30.746094-12.644531-46.148438-4.800781-12.070312 6.148437-22.894531 18.25-29.691406 33.203125-6.757813 14.855469-8.75 30.6875-5.46875 43.4375 3.71875 14.449219 13.535156 24.042969 27.746094 27.640625-3.574219 6.351563-8.835938 14.777344-16.085938 24.277344-3.351562 4.394531-2.507812 10.667969 1.882812 14.019531 1.8125 1.382812 3.945313 2.050781 6.058594 2.050781 3.011719 0 5.988282-1.355469 7.957032-3.933593 17.59375-23.054688 24.59375-40.441407 24.882812-41.167969 1.246094-3.132813.828125-6.683594-1.113281-9.441407-1.9375-2.757812-5.109375-4.363281-8.507813-4.242187-13.222656.425781-20.882812-4.207031-23.449218-14.1875-4.644532-18.027344 7.910156-45.195313 24.867187-53.835937 11.410156-5.8125 22.90625-1.839844 34.167969 11.796874 2.484375 3.015626 6.496094 4.300782 10.277344 3.300782 3.773437-1.003906 6.621093-4.113282 7.285156-7.964844 2.148437-12.425781 10.40625-26.21875 19.144531-40.816406 19.832031-33.125 44.414063-74.195313 9.277344-123.128906l24.800781-26.792969 6.914062 6.914062c1.953126 1.953125 4.515626 2.929688 7.074219 2.929688 2.558594 0 5.117188-.976563 7.070313-2.929688 3.902344-3.902343 3.902344-10.234375 0-14.140625l-7.460938-7.464844 12.855469-13.890624 6.917969 6.917968c1.953125 1.953125 4.511718 2.929688 7.070312 2.929688s5.121094-.976563 7.070313-2.929688c3.90625-3.90625 3.90625-10.238281 0-14.144531l-7.460938-7.460937 11.441407-12.363282 3.355468 3.355469c1.953125 1.953125 4.511719 2.929687 7.070313 2.929687 2.5625 0 5.121093-.976562 7.074219-2.929687l36.703124-36.703125c3.90625-3.90625 3.90625-10.238281 0-14.144531zm-298.433593 281.902343-17.929688-17.925781 241.09375-223.164062zm254.660156-252.265624-20.320313-20.320313 22.5625-22.5625 20.320313 20.320313zm0 0"/><path d="m112.175781 364.84375c-3.90625-3.90625-10.238281-3.90625-14.144531 0l-20.546875 20.546875c-3.902344 3.902344-3.902344 10.234375 0 14.140625l35.480469 35.480469c1.953125 1.953125 4.511718 2.929687 7.074218 2.929687 2.558594 0 5.117188-.976562 7.070313-2.929687l20.546875-20.546875c3.902344-3.902344 3.902344-10.234375 0-14.140625zm7.863281 48.957031-21.339843-21.339843 6.402343-6.40625 21.339844 21.339843zm0 0"/><path d="m151.636719 311.617188c-2.835938-7.222657-7.847657-10.441407-11.550781-11.871094-12.472657-4.816406-28.535157 3.132812-45.546876 11.554687-10.882812 5.386719-31.140624 15.410157-34.078124 10.324219-.449219-.78125-.710938-1.375-.863282-1.800781.332032-.132813.703125-.242188.976563-.277344.035156.003906.070312.003906.109375.003906 5.378906 0 9.824218-4.28125 9.988281-9.699219.167969-5.519531-4.171875-10.128906-9.691406-10.296874-5.160157-.175782-14.441407 2.410156-19.046875 10.113281-2.179688 3.644531-4.917969 11.34375 1.210937 21.957031 3.199219 5.542969 9.230469 11.363281 20.4375 11.363281 2.882813 0 6.113281-.386719 9.722657-1.261719 9.488281-2.296874 19.96875-7.488281 30.105468-12.503906 7.324219-3.625 14.246094-7.050781 20.199219-9.132812 4.523437-1.582032 7.015625-1.835938 8.257813-1.816406-3.714844 1.621093-6.21875 5.425781-5.984376 9.710937.304688 5.515625 5.023438 9.734375 10.53125 9.441406 5.609376-.308593 10.570313-3.199219 13.613282-7.929687 3.351562-5.21875 3.953125-11.90625 1.609375-17.878906zm0 0"/><path d="m183.277344 409.085938c-5.019532 10.136718-10.207032 20.621093-12.507813 30.109374-4.273437 17.636719 3.136719 26.136719 10.105469 30.160157 4.839844 2.792969 9.074219 3.746093 12.59375 3.742187 4.199219 0 7.382812-1.347656 9.363281-2.535156 7.703125-4.601562 10.269531-13.914062 10.113281-19.046875-.167968-5.519531-4.78125-9.820313-10.300781-9.6875-5.453125.164063-9.753906 4.664063-9.695312 10.09375-.035157.273437-.144531.644531-.277344.980469-.421875-.152344-1.019531-.417969-1.796875-.867188-5.089844-2.9375 4.9375-23.191406 10.324219-34.074218 8.417969-17.011719 16.371093-33.074219 11.554687-45.546876-1.429687-3.707031-4.648437-8.714843-11.871094-11.550781-5.980468-2.347656-12.660156-1.746093-17.878906 1.609375-4.734375 3.039063-7.625 8-7.929687 13.609375-.300781 5.515625 3.925781 10.230469 9.4375 10.53125 4.28125.230469 8.089843-2.269531 9.714843-5.984375.023438 1.234375-.238281 3.734375-1.820312 8.257813-2.078125 5.953125-5.503906 12.875-9.128906 20.199219zm0 0"/></svg>