<svg viewBox="0 -86 512 512" xmlns="http://www.w3.org/2000/svg"><g fill-rule="evenodd"><path d="m69.898438 77.082031h126.453124c9.226563 0 16.777344-7.550781 16.777344-16.773437 0-9.226563-7.550781-16.773438-16.777344-16.773438h-126.453124c-9.222657 0-16.773438 7.546875-16.773438 16.773438 0 9.222656 7.550781 16.773437 16.773438 16.773437zm0 0" fill="#ffcf33"/><path d="m265.277344 60.308594c0 9.222656 7.550781 16.769531 16.773437 16.769531h46.453125c9.226563 0 16.773438-7.546875 16.773438-16.773437 0-9.226563-7.546875-16.773438-16.773438-16.773438h-46.453125c-9.222656 0-16.773437 7.550781-16.773437 16.777344zm0 0" fill="#ffcf33"/><path d="m458.847656 77.082031c0 18.527344-15.019531 33.546875-33.546875 33.546875-18.527343 0-33.546875-15.019531-33.546875-33.546875 0-18.527343 15.019532-33.550781 33.546875-33.550781 18.527344 0 33.546875 15.023438 33.546875 33.550781zm0 0" fill="#fd4848"/><path d="m425.300781 110.628906c-18.527343 0-33.546875-15.019531-33.546875-33.546875 0-18.527343 15.019532-33.550781 33.546875-33.550781 18.527344 0 33.546875 15.023438 33.546875 33.550781 0 18.527344-15.019531 33.546875-33.546875 33.546875zm-80.023437-50.320312c0 9.222656-7.546875 16.773437-16.769532 16.773437h-46.453124c-9.226563 0-16.773438-7.550781-16.773438-16.773437 0-9.226563 7.546875-16.773438 16.773438-16.773438h46.453124c9.222657-.003906 16.769532 7.546875 16.769532 16.773438zm136.710937-50.324219h-452c-11 0-20 9-20 20v280.003906c0 11 9 20 20 20h452c11 0 20-9 20-20v-280.003906c0-11-9-20-20-20zm-268.863281 50.324219c0 9.222656-7.546875 16.773437-16.773438 16.773437h-126.453124c-9.222657 0-16.773438-7.550781-16.773438-16.773437 0-9.226563 7.550781-16.773438 16.773438-16.773438h126.453124c9.226563-.003906 16.773438 7.546875 16.773438 16.773438zm163.816406 83.867187h77.046875c8.796875 0 16 7.199219 16 16v121.8125c0 8.796875-7.203125 16-16 16h-396c-8.800781 0-16-7.203125-16-16v-121.8125c0-8.800781 7.199219-16 16-16zm0 0" fill="#53c9d8"/><path d="m116.421875 230.664062v-86.488281h-37.21875v86.488281zm0 0" fill="#3d5385"/><path d="m153.640625 144.175781v86.488281h37.214844v-86.488281zm0 0" fill="#3d5385"/><path d="m228.074219 144.175781v86.488281h37.21875v-86.488281zm0 0" fill="#3d5385"/><path d="m376.941406 144.175781v86.488281h37.21875v-86.488281zm0 0" fill="#3d5385"/><path d="m414.160156 144.175781v86.488281h-18.609375v67.320313h58.433594c8.800781 0 16-7.199219 16-16v-121.808594c0-8.800781-7.199219-16-16-16zm0 0" fill="#ffeeda"/><path d="m376.941406 230.664062v-86.488281h-55.824218v153.808594h74.433593v-67.320313zm0 0" fill="#ffeeda"/><path d="m321.117188 297.984375v-153.808594h-55.824219v86.488281h-18.609375v67.320313zm0 0" fill="#ffeeda"/><path d="m246.683594 297.984375v-67.320313h-18.609375v-86.488281h-37.21875v86.488281h-18.609375v67.320313zm0 0" fill="#ffeeda"/><path d="m172.246094 297.984375v-67.320313h-18.605469v-86.488281h-37.21875v86.488281h-18.609375v67.320313zm0 0" fill="#ffeeda"/><path d="m97.8125 297.984375v-67.320313h-18.609375v-86.488281h-21.214844c-8.800781 0-16 7.199219-16 16v121.8125c0 8.796875 7.199219 16 16 16h39.824219zm0 0" fill="#ffeeda"/></g><path d="m32 160.1875v121.8125c0 14.335938 11.664062 26 26 26h396c14.335938 0 26-11.664062 26-26v-121.8125c0-14.335938-11.664062-25.996094-26-25.996094h-396c-14.335938 0-26 11.664063-26 25.996094zm74.4375 60.492188h-17.21875v-66.488282h17.21875zm10 20c5.519531 0 10-4.476563 10-10v-76.488282h17.214844v76.488282c0 5.519531 4.480468 10 10 10h8.609375v47.320312h-54.4375v-47.320312zm287.738281-20h-17.21875v-66.488282h17.21875zm-27.21875 20h8.609375v47.320312h-54.4375v-133.808594h35.828125v76.488282c0 5.523437 4.476563 10 10 10zm-65.824219 47.320312h-54.4375v-47.320312h8.609376c5.519531 0 10-4.476563 10-10v-76.488282h35.824218v133.808594zm-55.828124-67.320312h-17.214844v-66.488282h17.214844zm-27.214844 20h8.605468v47.320312h-54.433593v-47.320312h8.605469c5.523437 0 10-4.476563 10-10v-76.488282h17.21875v76.488282c.003906 5.523437 4.480468 10 10.003906 10zm-47.21875-20h-17.21875v-66.488282h17.21875zm279.128906-60.492188v121.8125c0 3.253906-2.746094 6-6 6h-48.433594v-47.320312h8.609375c5.519531 0 10-4.476563 10-10v-76.488282h29.824219c3.253906 0 6 2.746094 6 5.996094zm-408 0c0-3.25 2.746094-5.996094 6-5.996094h11.21875v76.488282c0 5.519531 4.476562 10 10 10h8.605469v47.320312h-29.824219c-3.253906 0-6-2.746094-6-6zm0 0"/><path d="m69.914062 100.644531c-5.523437 0-10 4.476563-10 10 0 5.519531 4.476563 10 10 10h17.269532c5.519531 0 10-4.480469 10-10 0-5.523437-4.480469-10-10-10zm0 0"/><path d="m223.140625 60.320312c0-14.761718-12.011719-26.773437-26.773437-26.773437h-126.453126c-14.765624 0-26.773437 12.011719-26.773437 26.773437 0 14.765626 12.011719 26.773438 26.773437 26.773438h126.453126c14.761718.003906 26.773437-12.007812 26.773437-26.773438zm-26.773437 6.777344h-126.453126c-3.671874 0-6.773437-3.105468-6.773437-6.777344 0-3.667968 3.101563-6.769531 6.773437-6.769531h126.453126c3.671874 0 6.773437 3.101563 6.773437 6.773438 0 3.667969-3.101563 6.773437-6.773437 6.773437zm0 0"/><path d="m468.859375 77.097656c0-24.015625-19.535156-43.550781-43.546875-43.550781s-43.546875 19.535156-43.546875 43.550781c0 24.011719 19.535156 43.546875 43.546875 43.546875s43.546875-19.539062 43.546875-43.546875zm-67.09375 0c0-12.984375 10.5625-23.550781 23.550781-23.550781 12.980469 0 23.546875 10.5625 23.546875 23.550781 0 12.980469-10.5625 23.546875-23.546875 23.546875-12.988281 0-23.550781-10.566406-23.550781-23.546875zm0 0"/><path d="m328.519531 33.546875h-46.453125c-14.761718 0-26.773437 12.011719-26.773437 26.773437 0 14.765626 12.011719 26.773438 26.773437 26.773438h46.453125c14.761719 0 26.773438-12.011719 26.773438-26.773438 0-14.761718-12.011719-26.773437-26.773438-26.773437zm0 33.546875h-46.453125c-3.671875 0-6.773437-3.101562-6.773437-6.773438 0-3.667968 3.101562-6.769531 6.773437-6.769531h46.453125c3.671875 0 6.773438 3.101563 6.773438 6.773438 0 3.667969-3.101563 6.769531-6.773438 6.769531zm0 0"/><path d="m179.097656 100.644531c-5.523437 0-10 4.476563-10 10 0 5.519531 4.476563 10 10 10h17.269532c5.523437 0 10-4.480469 10-10 0-5.523437-4.476563-10-10-10zm0 0"/><path d="m124.503906 100.644531c-5.519531 0-10 4.476563-10 10 0 5.519531 4.480469 10 10 10h17.269532c5.523437 0 10-4.480469 10-10 0-5.523437-4.476563-10-10-10zm0 0"/><path d="m265.292969 120.644531h17.269531c5.519531 0 10-4.480469 10-10 0-5.523437-4.480469-10-10-10h-17.269531c-5.523438 0-10 4.476563-10 10 0 5.519531 4.476562 10 10 10zm0 0"/><path d="m328.023438 100.644531c-5.523438 0-10 4.476563-10 10 0 5.519531 4.476562 10 10 10h17.269531c5.519531 0 10-4.480469 10-10 0-5.523437-4.480469-10-10-10zm0 0"/><path d="m482 0h-452c-16.542969 0-30 13.457031-30 30v40.675781c0 5.523438 4.476562 10 10 10s10-4.476562 10-10v-40.675781c0-5.515625 4.484375-10 10-10h452c5.515625 0 10 4.484375 10 10v280c0 5.515625-4.484375 10-10 10h-57.433594c-5.523437 0-10 4.476562-10 10s4.476563 10 10 10h57.433594c16.542969 0 30-13.457031 30-30v-280c0-16.542969-13.457031-30-30-30zm0 0"/><path d="m355.601562 320h-325.601562c-5.515625 0-10-4.484375-10-10v-170.355469c0-5.523437-4.476562-10-10-10s-10 4.476563-10 10v170.355469c0 16.542969 13.457031 30 30 30h325.601562c5.519532 0 10-4.476562 10-10s-4.480468-10-10-10zm0 0"/><path d="m10 120.910156c5.523438 0 10-4.476562 10-10v-.269531c0-5.519531-4.476562-10-10-10s-10 4.480469-10 10v.269531c0 5.523438 4.476562 10 10 10zm0 0"/><path d="m395.835938 320h-.269532c-5.523437 0-10 4.476562-10 10s4.476563 10 10 10h.269532c5.519531 0 10-4.476562 10-10s-4.480469-10-10-10zm0 0"/></svg>