<svg viewBox="0 -36 512 512" xmlns="http://www.w3.org/2000/svg"><g fill-rule="evenodd"><path d="m109.761719 119.988281 146.226562-68.789062 146.222657 68.789062h87.601562l-233.824219-110-233.828125 110zm0 0" fill="#ffeeda"/><path d="m255.988281 51.199219-146.226562 68.789062h292.449219zm0 0" fill="#53c9d8"/><path d="m255.988281 119.988281h-246c2.527344 7.859375 3.4375 13.890625 3.4375 20.835938 0 6.941406-1.226562 13.945312-3.4375 20.832031h492c-2.214843-6.886719-3.4375-13.890625-3.4375-20.832031 0-6.945313.910157-12.976563 3.4375-20.835938zm0 0" fill="#ffeeda"/><path d="m97.269531 278.753906-3.484375-117.097656h-47.597656l-6.199219 208.332031h60zm0 0" fill="#53c9d8"/><path d="m93.785156 161.65625 3.484375 117.097656c27.816407-10.355468 54.5625-68.660156 53.691407-117.097656zm0 0" fill="#fd4848"/><path d="m150.960938 161.65625c.871093 48.4375-25.875 106.742188-53.691407 117.097656l21.707031 3.351563c46.367188-10.355469 90.929688-72.011719 89.480469-120.449219zm0 0" fill="#fd4848"/><path d="m147.839844 369.988281c0-59.3125-28.863282-87.882812-28.863282-87.882812l-21.707031-3.351563 2.71875 91.234375zm0 0" fill="#fd4848"/><path d="m118.976562 282.105469s28.863282 28.570312 28.863282 87.882812h216.292968c0-59.3125 28.863282-87.882812 28.863282-87.882812-46.367188-10.355469-90.929688-72.011719-89.480469-120.449219h-95.0625c1.453125 48.4375-43.105469 110.09375-89.476563 120.449219zm0 0" fill="#ffcf33"/><path d="m303.519531 161.65625c-1.453125 48.4375 43.109375 110.09375 89.480469 120.449219l21.703125-3.351563c-27.8125-10.355468-54.558594-68.660156-53.691406-117.097656zm0 0" fill="#fd4848"/><path d="m361.011719 161.65625c-.871094 48.4375 25.875 106.742188 53.691406 117.097656l3.484375-117.097656zm0 0" fill="#fd4848"/><path d="m392.996094 282.105469s-28.863282 28.570312-28.863282 87.882812h47.855469l2.714844-91.234375zm0 0" fill="#fd4848"/><path d="m414.703125 278.753906-2.714844 91.234375h60l-6.203125-208.332031h-47.597656zm0 0" fill="#53c9d8"/><path d="m471.988281 369.988281h-432v30h432zm0 0" fill="#ffeeda"/><path d="m471.988281 399.988281h-447.003906c-8.246094 0-14.996094 6.75-14.996094 15v15h492v-15c0-8.25-6.75-15-15-15zm0 0" fill="#53c9d8"/></g><path d="m183.4375 54.144531c1.417969 0 2.859375-.304687 4.230469-.945312l.242187-.113281c5.003906-2.339844 7.160156-8.292969 4.820313-13.296876-2.339844-5-8.292969-7.15625-13.296875-4.816406l-.242188.113282c-5.003906 2.339843-7.160156 8.292968-4.820312 13.296874 1.699218 3.628907 5.304687 5.761719 9.066406 5.761719zm0 0"/><path d="m487.003906 390h-5.003906v-20c0-.054688-.007812-.109375-.007812-.167969 0-.042969.003906-.082031.003906-.128906l-5.894532-198.035156h25.898438c3.195312 0 6.199219-1.527344 8.082031-4.109375 1.882813-2.582032 2.414063-5.90625 1.4375-8.949219-1.960937-6.105469-2.957031-12.085937-2.957031-17.773437 0-6.167969.828125-11.152344 2.957031-17.773438.976563-3.039062.441407-6.367188-1.4375-8.949219-1.882812-2.582031-4.886719-4.109375-8.082031-4.109375h-9.9375l-231.804688-109.050781c-2.375-1.117187-4.96875-1.21875-7.285156-.480469h-.003906c-.007812.003906-.015625.007813-.023438.007813-.007812.003906-.011718.003906-.019531.007812-.003906 0-.007812.003907-.011719.003907-.148437.046874-.300781.101562-.445312.15625-.003906 0-.003906 0-.007812 0-.007813.003906-.015626.007812-.023438.011718-.003906 0-.011719.003906-.015625.007813-.003906 0-.007813 0-.011719.003906-.25.09375-.496094.199219-.738281.316406l-36.09375 16.976563c-4.996094 2.351562-7.140625 8.308594-4.789063 13.308594 2.351563 4.996093 8.308594 7.140624 13.304688 4.789062l31.90625-15.007812 189.078125 88.949218h-40.617187l-144.203126-67.839844c-2.695312-1.269531-5.816406-1.269531-8.515624 0l-144.203126 67.839844h-40.617187l94.765625-44.582031c5-2.351563 7.144531-8.308594 4.792969-13.304687-2.351563-5-8.304688-7.144532-13.304688-4.792969l-133.238281 62.679687h-9.9375c-3.195312 0-6.199219 1.527344-8.078125 4.109375-1.8867188 2.582031-2.417969 5.90625-1.441406 8.949219 2.128906 6.621094 2.957031 11.601562 2.957031 17.773438 0 5.6875-.992188 11.667968-2.957031 17.769531-.976563 3.042969-.4414065 6.371093 1.441406 8.953125 1.882813 2.582031 4.882813 4.109375 8.078125 4.109375h25.898438l-5.890626 198.035156c-.003906.046875.003907.09375 0 .140625 0 .054688-.007812.105469-.007812.15625v20h-5.003906c-13.78125 0-24.996094 11.21875-24.996094 25.003906v15c0 5.519532 4.476562 10 10 10h492c5.523438 0 10-4.480468 10-10v-15c0-13.785156-11.214844-25.003906-24.996094-25.003906zm-112.554687-30c2.378906-39.007812 18.152343-61.71875 23.683593-68.554688l6.230469-.960937-2.070312 69.515625zm-216.867188 0c-1.886719-35.386719-13.476562-59.492188-22.082031-72.75 19.527344-8.230469 38.710938-24.082031 54.214844-45.148438 16.515625-22.433593 26.582031-47.554687 28.460937-70.433593h75.648438c1.878906 22.878906 11.945312 48 28.460937 70.433593 15.503906 21.066407 34.683594 36.917969 54.214844 45.148438-8.605469 13.257812-20.195312 37.363281-22.082031 72.75zm-32.957031-89.949219c8.882812-10.472656 15.40625-22.785156 19.351562-31.382812 9.714844-21.1875 15.652344-45.070313 16.800782-67h37.328125c-4.003907 39.738281-38.046875 85.441406-73.480469 98.382812zm-17.894531-10.050781-2.628907-88.332031h36.667969c-2.035156 35.136719-17.679687 71.105469-34.039062 88.332031zm2.976562 100-2.070312-69.515625 6.226562.960937c5.566407 6.882813 21.3125 29.585938 23.6875 68.554688zm295.5625-99.996094c-16.359375-17.226562-32.003906-53.199218-34.039062-88.332031h36.667969zm-54.046875-88.335937c1.152344 21.929687 7.085938 45.8125 16.800782 67 3.945312 8.597656 10.46875 20.910156 19.351562 31.382812-35.433594-12.941406-69.476562-58.644531-73.480469-98.382812zm110.476563 188.332031h-39.398438l5.605469-188.332031h28.1875zm-205.699219-297.734375 101.476562 47.738281h-202.953124zm-233.335938 67.738281h466.671876c-.527344 3.542969-.773438 7.078125-.773438 10.832032 0 3.5625.277344 7.179687.828125 10.832031h-466.78125c.550781-3.652344.828125-7.269531.828125-10.832031 0-3.753907-.246094-7.289063-.773438-10.832032zm61.429688 41.664063 5.605469 188.332031h-39.394531l5.601562-188.332031zm407.90625 248.335937h-472v-5c0-2.710937 2.289062-5.003906 4.996094-5.003906h347.003906c5.523438 0 10-4.476562 10-10 0-5.519531-4.476562-10-10-10h-322v-9.996094h412v10h-21.035156c-5.523438 0-10 4.476563-10 10 0 5.519532 4.480468 10 10 10l31.023437-.003906c.003907 0 .007813.003906.011719.003906s.011719-.003906.015625-.003906h14.988281c2.707032 0 4.996094 2.292969 4.996094 5.003906zm0 0"/><path d="m412.234375 390.003906h-.269531c-5.523438 0-10 4.476563-10 10 0 5.519532 4.476562 10 10 10h.269531c5.523437 0 10-4.480468 10-10 0-5.523437-4.476563-10-10-10zm0 0"/></svg>