<svg xmlns="http://www.w3.org/2000/svg" style="display: none;"><symbol id="note" viewBox="0 -66 512.00149 512"><title>note</title><g fill-rule="evenodd"><path d="m148.894531 67.578125v71.285156l132.117188-57.589843v-71.289063zm0 0" fill="#53c9d8"/><path d="m147.574219 231.714844c-3.542969-10-13.820313-15.164063-25.949219-11.914063-9.636719 2.582031-18.105469 9.847657-22.957031 18.695313-2.730469 4.976562-4.316407 10.457031-4.316407 15.882812 0 15.058594 12.210938 24 27.273438 19.960938 15.058594-4.035156 27.269531-19.515625 27.269531-34.574219 0-2.933594-.464843-5.632813-1.320312-8.050781zm0 0" fill="#53c9d8"/><path d="m226.472656 196.785156c0 3.722656.746094 7.070313 2.097656 9.941406 4.109376 8.746094 13.832032 13.0625 25.171876 10.023438 12.890624-3.453125 23.695312-15.292969 26.539062-28.078125.476562-2.152344.730469-4.328125.730469-6.5 0-15.058594-12.207031-24-27.269531-19.960937-15.058594 4.035156-27.269532 19.515624-27.269532 34.574218zm0 0" fill="#53c9d8"/><path d="m330.125 279.167969c-15.261719 4.089843-27.816406 19.039062-29.34375 34.304687-.105469 1.035156-.160156 2.070313-.160156 3.101563 0 16.292969 13.210937 25.960937 29.503906 21.597656 16.292969-4.367187 29.5-21.113281 29.5-37.40625 0-.578125-.015625-1.148437-.050781-1.707031-.890625-15.253906-13.734375-24.101563-29.449219-19.890625zm0 0" fill="#fd4848"/><path d="m359.625 184.453125c20.277344-5.433594 60.671875 7.941406 73.011719 25.046875 0-85.257812-62.757813-56.746094-73.011719-95.007812zm0 0" fill="#fd4848"/></g><path d="m440.828125 290.65625-.425781-.105469c-5.351563-1.363281-10.796875 1.867188-12.160156 7.21875-1.363282 5.351563 1.867187 10.796875 7.21875 12.160157l.453124.117187c.824219.207031 1.652344.308594 2.464844.308594 4.46875 0 8.539063-3.019531 9.6875-7.546875 1.355469-5.355469-1.886718-10.792969-7.238281-12.152344zm0 0"/><path d="m469.945312 301.460938c-4.933593-2.472657-10.941406-.476563-13.417968 4.460937-2.476563 4.9375-.480469 10.945313 4.460937 13.421875 12.15625 6.089844 23.574219 14.433594 33.941407 24.800781 1.949218 1.953125 4.511718 2.929688 7.070312 2.929688s5.117188-.976563 7.070312-2.929688c3.90625-3.90625 3.90625-10.238281 0-14.144531-11.882812-11.882812-25.046874-21.484375-39.125-28.539062zm0 0"/><path d="m429.984375 156.941406c-10.40625-15.730468-25.390625-21.800781-37.730469-26.800781-13.320312-5.394531-20.390625-8.652344-22.953125-18.222656-.015625-.054688-.035156-.105469-.050781-.15625-.050781-.175781-.105469-.34375-.164062-.515625-.046876-.136719-.09375-.269532-.148438-.402344-.058594-.148438-.121094-.300781-.1875-.445312-.070312-.152344-.140625-.304688-.21875-.453126-.058594-.117187-.121094-.234374-.1875-.351562-.097656-.175781-.203125-.347656-.3125-.515625-.054688-.085937-.105469-.167969-.164062-.25-.136719-.195313-.277344-.382813-.425782-.570313-.042968-.050781-.082031-.105468-.125-.15625-.175781-.214843-.363281-.414062-.558594-.613281-.019531-.019531-.039062-.042969-.0625-.066406-.902343-.902344-1.972656-1.621094-3.144531-2.121094-.03125-.011719-.0625-.023437-.09375-.035156-.257812-.105469-.519531-.203125-.785156-.289063-.070313-.019531-.136719-.039062-.207031-.058593-.234375-.066407-.472656-.128907-.714844-.183594-.082031-.015625-.167969-.03125-.253906-.046875-.230469-.042969-.460938-.078125-.695313-.105469-.097656-.011719-.195312-.019531-.292969-.03125-.222656-.019531-.445312-.027343-.671874-.03125-.066407-.003906-.128907-.011719-.195313-.011719-.050781 0-.097656.007813-.148437.007813-.195313.003906-.390626.015625-.589844.03125-.144532.011719-.289063.019531-.433594.035156-.042969.003907-.089844.007813-.132812.011719-.117188.015625-.230469.042969-.34375.0625-.164063.027344-.328126.050781-.488282.085938-.148437.035156-.292968.074218-.441406.113281-.160156.042969-.320312.082031-.476562.132812-.160157.050781-.3125.113281-.46875.171875-.136719.050782-.273438.09375-.40625.152344-.28125.121094-.558594.253906-.824219.394531-.03125.019531-.054688.035157-.085938.050781-.246093.136719-.488281.285157-.722656.441407-.074219.050781-.148437.109375-.222656.164062-.175781.125-.355469.253907-.523438.390625-.085937.070313-.167969.144532-.25.21875-.148437.128906-.296875.257813-.4375.394532-.089843.089843-.171875.179687-.257812.269531-.125.132812-.25.265625-.367188.40625-.085937.101562-.167969.207031-.25.3125-.105469.136719-.210937.273437-.308593.414062-.082032.117188-.160157.234375-.234376.351563-.089843.140625-.175781.28125-.257812.425781-.074219.125-.144531.253906-.210938.386719-.074218.144531-.144531.289062-.210937.4375-.0625.136718-.125.273437-.179687.410156-.0625.152344-.117188.308594-.167969.464844-.050781.140625-.101563.277344-.140625.421875-.050782.167969-.089844.335937-.132813.507812-.03125.136719-.070312.269531-.09375.410157-.039062.199218-.066406.398437-.09375.601562-.015625.113281-.035156.226562-.046875.34375-.03125.324219-.050781.648438-.050781.976562v44.78125c-17.257813 3.28125-36.007813 8.203126-58.609375 15.382813v-111.128906c84.957031-27.578125 152.316406-34.53125 203.898438 17.054687 1.953124 1.949219 4.511718 2.925782 7.070312 2.925782 2.5625 0 5.121094-.976563 7.074219-2.925782 3.902343-3.90625 3.902343-10.238281 0-14.144531-29.738281-29.738281-65.742188-44.242187-110.0625-44.347656-.15625 0-.308594 0-.464844 0-36.230469 0-73.960937 9.726562-107.519531 20.414062v-32.519531c0-3.371094-1.699219-6.519531-4.519532-8.363281-2.820312-1.851563-6.382812-2.148438-9.476562-.804688l-131.988281 57.535157c-.023438.007812-.046875.019531-.070313.027343l-.0625.03125c-.0625.027344-.121094.0625-.183594.089844-.226562.105469-.453124.210937-.667968.332031-.125.070313-.246094.148438-.367188.222656-.148437.09375-.300781.183594-.445312.285157-.15625.105469-.304688.21875-.449219.332031-.105469.082031-.210937.160156-.3125.246094-.15625.128906-.304687.269531-.457031.410156-.082032.082031-.167969.15625-.25.242188-.140625.144531-.273438.292968-.40625.445312-.082032.09375-.164063.183594-.242188.28125-.113281.144531-.222656.289062-.328125.4375-.085937.117188-.171875.238281-.253906.359375-.085937.132813-.164063.265625-.242187.402344-.085938.144531-.175782.292969-.253907.449219-.0625.117187-.117187.238281-.175781.359374-.082031.175782-.164062.347657-.234375.527344-.046875.113282-.089844.234375-.128906.351563-.070313.183593-.132813.367187-.191407.554687-.039062.136719-.070312.273438-.105468.410156-.042969.171876-.085938.34375-.121094.519532-.035156.183594-.058594.371094-.082031.554687-.019531.132813-.042969.261719-.054688.394531-.027343.257813-.035156.515626-.039062.777344 0 .0625-.007813.117188-.007813.179688v.058594.089843 23.5c-12.496094 2.617188-23.832031 4.230469-34.425781 4.878907-5.511719.335937-9.707031 5.078124-9.371094 10.589843.324219 5.304688 4.730469 9.390625 9.972657 9.390625.207031 0 .414062-.003906.621093-.019531 10.386719-.632813 21.335938-2.089844 33.203125-4.417969v98.839844c-6.070312-2.03125-12.949218-2.195312-19.859375-.347656-10.394531 2.789062-19.585937 9.640625-25.890625 18.402344-31.242187-.222657-56.179687-10.035157-76.089844-29.945313-3.90625-3.902344-10.234374-3.902344-14.140624 0-3.90625 3.90625-3.90625 10.238281 0 14.144531 22.042968 22.042969 48.949218 33.738282 81.925781 35.558594-.316407 2.011719-.488281 4.042969-.488281 6.078125 0 10.136719 4.214843 19.1875 11.566406 24.828125 5.230468 4.011719 11.742187 6.089844 18.679687 6.089844 3.144531 0 6.375-.425782 9.613281-1.296875 19.445313-5.207031 34.679688-24.640625 34.679688-44.234375v-.507813c21.992188-5.582031 44.394531-13.078125 65.882812-20.601562 1.011719 1.0625 2.09375 2.058593 3.265626 2.957031 5.226562 4.011719 11.738281 6.09375 18.679687 6.09375 3.144531 0 6.375-.429688 9.613281-1.296875 14.613282-3.914063 26.847656-15.863281 32.027344-29.875 24.113281-7.925781 43.640625-13.316406 61.265625-16.875v90.59375c-6.671875-2.503906-14.355469-2.816406-22.089844-.742187-17.078125 4.574218-31.089843 19.449218-35.476562 36.21875-18.339844 5.800781-36.851563 12.359374-54.808594 18.722656-85.699219 30.386718-166.648437 59.082031-220.191406 5.535156-3.90625-3.902344-10.238281-3.902344-14.144531 0-3.90625 3.90625-3.90625 10.238281 0 14.144531 24.023437 24.019531 54.082031 35.832031 91.464843 35.832031 6.703125 0 13.644531-.378906 20.824219-1.136718 40.613281-4.285156 85.410156-20.164063 128.730469-35.523438 15.796875-5.601562 32.027343-11.34375 48.082031-16.554687 1.851562 6.46875 5.527344 11.992187 10.796875 16.035156 5.511719 4.230469 12.382813 6.421875 19.710937 6.421875 3.332032 0 6.753907-.453125 10.1875-1.375 18.375-4.921875 33.203126-21.765625 36.304688-40.070312 9.242188-1.25 18.089844-1.957032 26.386719-2.09375 5.523437-.09375 9.925781-4.644532 9.835937-10.164063-.09375-5.46875-4.550781-9.835937-9.996094-9.835937-.058593 0-.113281 0-.171874 0-8.207032.136718-16.617188.753906-25.445313 1.847656v-94.3125c18.15625-.277344 46.519531 10.53125 54.902344 22.152344 1.914062 2.652343 4.957031 4.148437 8.109375 4.148437 1.023437 0 2.0625-.15625 3.074218-.484375 4.128907-1.332031 6.925782-5.175781 6.925782-9.515625 0-11.707031-1.152344-21.546875-3.160156-29.878906 20.914062 5.9375 39.15625 16.832031 55.4375 33.117187 1.953124 1.949219 4.511718 2.925782 7.070312 2.925782s5.117188-.976563 7.070312-2.925782c3.90625-3.90625 3.90625-10.238281 0-14.144531-22.566406-22.566406-48.4375-36.195313-79.085937-41.667969zm-158.957031-82.203125-112.121094 48.871094v-49.46875l112.121094-48.871094zm-151.980469 189.957031c-4.390625 1.175782-8.273437.699219-10.9375-1.34375-2.449219-1.878906-3.742187-4.976562-3.742187-8.960937 0-3.628906 1.082031-7.34375 2.910156-10.789063.15625-.261718.300781-.535156.433594-.8125 3.597656-6.273437 9.71875-11.492187 16.515624-13.316406 4.390626-1.175781 8.277344-.695312 10.941407 1.347656 2.445312 1.878907 3.738281 4.976563 3.738281 8.957032 0 10.625-9.09375 22.035156-19.859375 24.917968zm39.859375-46.089843v-73.179688l112.121094-48.871093v56.355468c-6.070313-2.03125-12.945313-2.199218-19.859375-.34375-19.445313 5.210938-34.683594 24.640625-34.683594 44.234375 0 1.191407.066406 2.367188.179687 3.523438-18.960937 6.621093-38.574218 13.171875-57.757812 18.28125zm92.261719-11.5c-4.390625 1.179687-8.277344.699219-10.941407-1.34375-2.445312-1.878907-3.738281-4.976563-3.738281-8.960938 0-10.621093 9.09375-22.035156 19.855469-24.917969h.003906c1.574219-.421874 3.085938-.632812 4.5-.632812 2.523438 0 4.730469.667969 6.4375 1.976562 2.449219 1.878907 3.742188 4.976563 3.742188 8.960938 0 10.621094-9.09375 22.035156-19.859375 24.917969zm76.378906 121.421875c-5 1.339844-9.457031.773437-12.542969-1.597656-2.855468-2.191407-4.367187-5.769532-4.367187-10.339844 0-.683594.035156-1.367188.101562-2.054688.007813-.050781.007813-.101562.011719-.152344 1.148438-11.164062 10.742188-22.53125 21.976562-25.539062 1.773438-.476562 3.480469-.710938 5.082032-.710938 2.910156 0 5.472656.777344 7.464844 2.304688 2.855468 2.195312 4.367187 5.769531 4.367187 10.339844-.003906 11.835937-10.117187 24.542968-22.09375 27.75zm42.679687-155.269532c-.195312 0-.390624 0-.585937 0v-31.515624c4.890625 2.800781 10.117187 4.917968 15.105469 6.9375 15.742187 6.375 30.777344 12.464843 35.984375 38.527343-15.109375-8.410156-34.527344-13.949219-50.503907-13.949219zm0 0"/><path d="m62.941406 113.324219c.746094.167969 1.488282.25 2.222656.25 4.566407 0 8.6875-3.144531 9.742188-7.785157 1.226562-5.386718-2.148438-10.742187-7.535156-11.96875-.039063-.007812-.15625-.035156-.207032-.042968-5.394531-1.179688-10.664062 2.226562-11.859374 7.605468-1.195313 5.394532 2.242187 10.742188 7.636718 11.941407zm0 0"/><path d="m33.363281 102.917969c1.457031.742187 3.011719 1.097656 4.542969 1.097656 3.636719 0 7.144531-1.992187 8.914062-5.457031 2.511719-4.917969.558594-10.941406-4.359374-13.453125-9.132813-4.664063-17.675782-10.9375-25.390626-18.652344-3.902343-3.90625-10.238281-3.902344-14.140624 0-3.90625 3.90625-3.90625 10.238281 0 14.144531 9.195312 9.195313 19.4375 16.703125 30.433593 22.320313zm0 0"/></symbol><symbol id="bass" viewBox="0 0 511.99965 511"><title>bass</title><g fill-rule="evenodd"><path d="m441.527344 57.894531 13.046875 13.050781 10.707031 10.703126 36.703125-36.703126-34.460937-34.460937-36.703126 36.703125zm0 0" fill="#ffcf33"/><path d="m403.082031 126.574219 26.457031-28.578125 25.035157-27.050782-13.046875-13.050781-27.050782 25.039063-28.582031 26.457031-41.027343 37.976563-166.589844 154.203124 32.625 32.625 154.203125-166.589843zm0 0" fill="#ffcfac"/><path d="m340.285156 330.035156c7.78125-45.015625 78.109375-93.441406 28.238282-159.007812l-3.417969-3.421875-154.203125 166.589843-32.625-32.625 166.589844-154.203124-3.421876-3.421876c-65.566406-49.867187-113.992187 20.460938-159.007812 28.242188 67.199219 55.480469-75.066406 118.378906-72.585938 42.964844 0 0-30.546874 12.132812-64.332031 45.917968-51.148437 51.148438-46.519531 138.703126 10.332031 195.550782 56.847657 56.855468 144.398438 61.480468 195.550782 10.328125 33.78125-33.78125 45.914062-64.328125 45.914062-64.328125-75.40625 2.480468-12.511718-139.785156 42.96875-72.585938zm-235.195312 41.863282 35.480468 35.480468-20.546874 20.546875-35.480469-35.480469zm0 0" fill="#fd4848"/><path d="m84.539062 392.445312 20.546876-20.546874 35.480468 35.480468-20.546875 20.546875zm0 0" fill="#ffcf33"/></g><path d="m215.699219 480.480469c-47.9375 23.804687-110.75 11.089843-152.757813-30.910157 0-.003906-.003906-.003906-.003906-.007812-.003906-.003906-.007812-.003906-.011719-.007812-25.742187-25.746094-40.917969-58.898438-42.742187-93.359376-1.800782-34.066406 9.714844-65.332031 32.421875-88.039062 19.199219-19.203125 37.394531-31.128906 48.820312-37.574219 3.597657 14.203125 13.191407 24.015625 27.632813 27.734375 12.753906 3.28125 28.585937 1.289063 43.441406-5.46875 14.953125-6.800781 27.054688-17.621094 33.203125-29.695312 7.84375-15.398438 6.003906-31.613282-4.800781-46.144532 10.238281-4.253906 20.398437-10.339843 30.941406-16.648437 4.945312-2.960937 10.058594-6.023437 15.160156-8.867187 4.824219-2.691407 6.554688-8.78125 3.867188-13.605469-2.691406-4.824219-8.78125-6.554688-13.605469-3.863281-5.371094 2.996093-10.621094 6.136718-15.695313 9.175781-14.601562 8.742187-28.394531 17-40.820312 19.148437-3.851562.664063-6.960938 3.511719-7.964844 7.285156-1 3.777344.289063 7.789063 3.300782 10.277344 13.636718 11.261719 17.605468 22.757813 11.792968 34.164063-8.636718 16.960937-35.804687 29.519531-53.832031 24.871093-9.980469-2.566406-14.621094-10.238281-14.1875-23.449218.109375-3.371094-1.484375-6.570313-4.242187-8.511719-2.757813-1.9375-6.308594-2.355469-9.441407-1.109375-1.328125.523438-32.871093 13.292969-67.714843 48.136719-26.769532 26.769531-40.351563 63.433593-38.25 103.238281 1.914062 36.210938 16.648437 71.066406 41.71875 99.175781l-12.269532 12.269531c-3.90625 3.90625-3.90625 10.238282 0 14.144532 1.953125 1.953125 4.511719 2.929687 7.070313 2.929687 2.558593 0 5.117187-.976562 7.070312-2.929687l12.265625-12.265625c22.574219 20.144531 49.488282 33.621093 78.410156 39.171875 9.460938 1.816406 18.984376 2.714844 28.414063 2.714844 21.746094 0 42.980469-4.773438 61.703125-14.066407 4.945312-2.457031 6.964844-8.457031 4.507812-13.40625-2.457031-4.945312-8.453124-6.964843-13.402343-4.507812zm0 0"/><path d="m267.304688 141.054688c1.089843 0 2.195312-.179688 3.28125-.554688l.363281-.125c5.230469-1.78125 8.023437-7.460938 6.246093-12.6875-1.777343-5.230469-7.460937-8.023438-12.6875-6.246094l-.480468.164063c-5.21875 1.8125-7.980469 7.511719-6.167969 12.726562 1.433594 4.132813 5.304687 6.722657 9.445313 6.722657zm0 0"/><path d="m248.46875 455.5-.296875.316406c-3.753906 4.050782-3.515625 10.375.535156 14.132813 1.925781 1.785156 4.363281 2.667969 6.796875 2.667969 2.683594 0 5.363282-1.078126 7.335938-3.203126l.296875-.320312c3.753906-4.050781 3.515625-10.378906-.535157-14.132812-4.050781-3.753907-10.378906-3.515626-14.132812.539062zm0 0"/><path d="m509.070312 37.886719-34.460937-34.457031c-3.90625-3.90625-10.234375-3.90625-14.140625 0l-36.703125 36.703124c-3.90625 3.902344-3.90625 10.234376 0 14.140626l3.355469 3.355468-12.363282 11.445313-7.464843-7.464844c-3.90625-3.902344-10.234375-3.902344-14.140625 0-3.90625 3.90625-3.90625 10.238281 0 14.144531l6.914062 6.917969-13.890625 12.855469-7.460937-7.460938c-3.90625-3.902344-10.234375-3.902344-14.140625 0-3.90625 3.90625-3.90625 10.238282 0 14.144532l6.914062 6.914062-26.792969 24.800781c-12.476562-8.9375-25.347656-14.546875-38.304687-16.679687-5.445313-.898438-10.597656 2.796875-11.492187 8.246094-.894532 5.449218 2.796874 10.59375 8.246093 11.488281 8.914063 1.464843 17.636719 5.042969 26.507813 10.871093l-158.15625 146.394532c-1.996094 1.847656-3.152344 4.425781-3.207032 7.144531-.050781 2.71875 1.007813 5.339844 2.929688 7.265625l32.625 32.625c1.878906 1.878906 4.421875 2.929688 7.070312 2.929688h.195313c2.71875-.054688 5.296875-1.210938 7.144531-3.207032l146.394532-158.15625c24.0625 36.722656 6.273437 66.441406-12.507813 97.8125-6.3125 10.539063-12.398437 20.703125-16.648437 30.9375-14.53125-10.804687-30.746094-12.644531-46.148438-4.800781-12.070312 6.148437-22.894531 18.25-29.691406 33.203125-6.757813 14.855469-8.75 30.6875-5.46875 43.4375 3.71875 14.449219 13.535156 24.042969 27.746094 27.640625-3.574219 6.351563-8.835938 14.777344-16.085938 24.277344-3.351562 4.394531-2.507812 10.667969 1.882812 14.019531 1.8125 1.382812 3.945313 2.050781 6.058594 2.050781 3.011719 0 5.988282-1.355469 7.957032-3.933593 17.59375-23.054688 24.59375-40.441407 24.882812-41.167969 1.246094-3.132813.828125-6.683594-1.113281-9.441407-1.9375-2.757812-5.109375-4.363281-8.507813-4.242187-13.222656.425781-20.882812-4.207031-23.449218-14.1875-4.644532-18.027344 7.910156-45.195313 24.867187-53.835937 11.410156-5.8125 22.90625-1.839844 34.167969 11.796874 2.484375 3.015626 6.496094 4.300782 10.277344 3.300782 3.773437-1.003906 6.621093-4.113282 7.285156-7.964844 2.148437-12.425781 10.40625-26.21875 19.144531-40.816406 19.832031-33.125 44.414063-74.195313 9.277344-123.128906l24.800781-26.792969 6.914062 6.914062c1.953126 1.953125 4.515626 2.929688 7.074219 2.929688 2.558594 0 5.117188-.976563 7.070313-2.929688 3.902344-3.902343 3.902344-10.234375 0-14.140625l-7.460938-7.464844 12.855469-13.890624 6.917969 6.917968c1.953125 1.953125 4.511718 2.929688 7.070312 2.929688s5.121094-.976563 7.070313-2.929688c3.90625-3.90625 3.90625-10.238281 0-14.144531l-7.460938-7.460937 11.441407-12.363282 3.355468 3.355469c1.953125 1.953125 4.511719 2.929687 7.070313 2.929687 2.5625 0 5.121093-.976562 7.074219-2.929687l36.703124-36.703125c3.90625-3.90625 3.90625-10.238281 0-14.144531zm-298.433593 281.902343-17.929688-17.925781 241.09375-223.164062zm254.660156-252.265624-20.320313-20.320313 22.5625-22.5625 20.320313 20.320313zm0 0"/><path d="m112.175781 364.84375c-3.90625-3.90625-10.238281-3.90625-14.144531 0l-20.546875 20.546875c-3.902344 3.902344-3.902344 10.234375 0 14.140625l35.480469 35.480469c1.953125 1.953125 4.511718 2.929687 7.074218 2.929687 2.558594 0 5.117188-.976562 7.070313-2.929687l20.546875-20.546875c3.902344-3.902344 3.902344-10.234375 0-14.140625zm7.863281 48.957031-21.339843-21.339843 6.402343-6.40625 21.339844 21.339843zm0 0"/><path d="m151.636719 311.617188c-2.835938-7.222657-7.847657-10.441407-11.550781-11.871094-12.472657-4.816406-28.535157 3.132812-45.546876 11.554687-10.882812 5.386719-31.140624 15.410157-34.078124 10.324219-.449219-.78125-.710938-1.375-.863282-1.800781.332032-.132813.703125-.242188.976563-.277344.035156.003906.070312.003906.109375.003906 5.378906 0 9.824218-4.28125 9.988281-9.699219.167969-5.519531-4.171875-10.128906-9.691406-10.296874-5.160157-.175782-14.441407 2.410156-19.046875 10.113281-2.179688 3.644531-4.917969 11.34375 1.210937 21.957031 3.199219 5.542969 9.230469 11.363281 20.4375 11.363281 2.882813 0 6.113281-.386719 9.722657-1.261719 9.488281-2.296874 19.96875-7.488281 30.105468-12.503906 7.324219-3.625 14.246094-7.050781 20.199219-9.132812 4.523437-1.582032 7.015625-1.835938 8.257813-1.816406-3.714844 1.621093-6.21875 5.425781-5.984376 9.710937.304688 5.515625 5.023438 9.734375 10.53125 9.441406 5.609376-.308593 10.570313-3.199219 13.613282-7.929687 3.351562-5.21875 3.953125-11.90625 1.609375-17.878906zm0 0"/><path d="m183.277344 409.085938c-5.019532 10.136718-10.207032 20.621093-12.507813 30.109374-4.273437 17.636719 3.136719 26.136719 10.105469 30.160157 4.839844 2.792969 9.074219 3.746093 12.59375 3.742187 4.199219 0 7.382812-1.347656 9.363281-2.535156 7.703125-4.601562 10.269531-13.914062 10.113281-19.046875-.167968-5.519531-4.78125-9.820313-10.300781-9.6875-5.453125.164063-9.753906 4.664063-9.695312 10.09375-.035157.273437-.144531.644531-.277344.980469-.421875-.152344-1.019531-.417969-1.796875-.867188-5.089844-2.9375 4.9375-23.191406 10.324219-34.074218 8.417969-17.011719 16.371093-33.074219 11.554687-45.546876-1.429687-3.707031-4.648437-8.714843-11.871094-11.550781-5.980468-2.347656-12.660156-1.746093-17.878906 1.609375-4.734375 3.039063-7.625 8-7.929687 13.609375-.300781 5.515625 3.925781 10.230469 9.4375 10.53125 4.28125.230469 8.089843-2.269531 9.714843-5.984375.023438 1.234375-.238281 3.734375-1.820312 8.257813-2.078125 5.953125-5.503906 12.875-9.128906 20.199219zm0 0"/></symbol><symbol id="keyboard" viewBox="0 -86 512 512"><title>keyboard</title><g fill-rule="evenodd"><path d="m69.898438 77.082031h126.453124c9.226563 0 16.777344-7.550781 16.777344-16.773437 0-9.226563-7.550781-16.773438-16.777344-16.773438h-126.453124c-9.222657 0-16.773438 7.546875-16.773438 16.773438 0 9.222656 7.550781 16.773437 16.773438 16.773437zm0 0" fill="#ffcf33"/><path d="m265.277344 60.308594c0 9.222656 7.550781 16.769531 16.773437 16.769531h46.453125c9.226563 0 16.773438-7.546875 16.773438-16.773437 0-9.226563-7.546875-16.773438-16.773438-16.773438h-46.453125c-9.222656 0-16.773437 7.550781-16.773437 16.777344zm0 0" fill="#ffcf33"/><path d="m458.847656 77.082031c0 18.527344-15.019531 33.546875-33.546875 33.546875-18.527343 0-33.546875-15.019531-33.546875-33.546875 0-18.527343 15.019532-33.550781 33.546875-33.550781 18.527344 0 33.546875 15.023438 33.546875 33.550781zm0 0" fill="#fd4848"/><path d="m425.300781 110.628906c-18.527343 0-33.546875-15.019531-33.546875-33.546875 0-18.527343 15.019532-33.550781 33.546875-33.550781 18.527344 0 33.546875 15.023438 33.546875 33.550781 0 18.527344-15.019531 33.546875-33.546875 33.546875zm-80.023437-50.320312c0 9.222656-7.546875 16.773437-16.769532 16.773437h-46.453124c-9.226563 0-16.773438-7.550781-16.773438-16.773437 0-9.226563 7.546875-16.773438 16.773438-16.773438h46.453124c9.222657-.003906 16.769532 7.546875 16.769532 16.773438zm136.710937-50.324219h-452c-11 0-20 9-20 20v280.003906c0 11 9 20 20 20h452c11 0 20-9 20-20v-280.003906c0-11-9-20-20-20zm-268.863281 50.324219c0 9.222656-7.546875 16.773437-16.773438 16.773437h-126.453124c-9.222657 0-16.773438-7.550781-16.773438-16.773437 0-9.226563 7.550781-16.773438 16.773438-16.773438h126.453124c9.226563-.003906 16.773438 7.546875 16.773438 16.773438zm163.816406 83.867187h77.046875c8.796875 0 16 7.199219 16 16v121.8125c0 8.796875-7.203125 16-16 16h-396c-8.800781 0-16-7.203125-16-16v-121.8125c0-8.800781 7.199219-16 16-16zm0 0" fill="#53c9d8"/><path d="m116.421875 230.664062v-86.488281h-37.21875v86.488281zm0 0" fill="#3d5385"/><path d="m153.640625 144.175781v86.488281h37.214844v-86.488281zm0 0" fill="#3d5385"/><path d="m228.074219 144.175781v86.488281h37.21875v-86.488281zm0 0" fill="#3d5385"/><path d="m376.941406 144.175781v86.488281h37.21875v-86.488281zm0 0" fill="#3d5385"/><path d="m414.160156 144.175781v86.488281h-18.609375v67.320313h58.433594c8.800781 0 16-7.199219 16-16v-121.808594c0-8.800781-7.199219-16-16-16zm0 0" fill="#ffeeda"/><path d="m376.941406 230.664062v-86.488281h-55.824218v153.808594h74.433593v-67.320313zm0 0" fill="#ffeeda"/><path d="m321.117188 297.984375v-153.808594h-55.824219v86.488281h-18.609375v67.320313zm0 0" fill="#ffeeda"/><path d="m246.683594 297.984375v-67.320313h-18.609375v-86.488281h-37.21875v86.488281h-18.609375v67.320313zm0 0" fill="#ffeeda"/><path d="m172.246094 297.984375v-67.320313h-18.605469v-86.488281h-37.21875v86.488281h-18.609375v67.320313zm0 0" fill="#ffeeda"/><path d="m97.8125 297.984375v-67.320313h-18.609375v-86.488281h-21.214844c-8.800781 0-16 7.199219-16 16v121.8125c0 8.796875 7.199219 16 16 16h39.824219zm0 0" fill="#ffeeda"/></g><path d="m32 160.1875v121.8125c0 14.335938 11.664062 26 26 26h396c14.335938 0 26-11.664062 26-26v-121.8125c0-14.335938-11.664062-25.996094-26-25.996094h-396c-14.335938 0-26 11.664063-26 25.996094zm74.4375 60.492188h-17.21875v-66.488282h17.21875zm10 20c5.519531 0 10-4.476563 10-10v-76.488282h17.214844v76.488282c0 5.519531 4.480468 10 10 10h8.609375v47.320312h-54.4375v-47.320312zm287.738281-20h-17.21875v-66.488282h17.21875zm-27.21875 20h8.609375v47.320312h-54.4375v-133.808594h35.828125v76.488282c0 5.523437 4.476563 10 10 10zm-65.824219 47.320312h-54.4375v-47.320312h8.609376c5.519531 0 10-4.476563 10-10v-76.488282h35.824218v133.808594zm-55.828124-67.320312h-17.214844v-66.488282h17.214844zm-27.214844 20h8.605468v47.320312h-54.433593v-47.320312h8.605469c5.523437 0 10-4.476563 10-10v-76.488282h17.21875v76.488282c.003906 5.523437 4.480468 10 10.003906 10zm-47.21875-20h-17.21875v-66.488282h17.21875zm279.128906-60.492188v121.8125c0 3.253906-2.746094 6-6 6h-48.433594v-47.320312h8.609375c5.519531 0 10-4.476563 10-10v-76.488282h29.824219c3.253906 0 6 2.746094 6 5.996094zm-408 0c0-3.25 2.746094-5.996094 6-5.996094h11.21875v76.488282c0 5.519531 4.476562 10 10 10h8.605469v47.320312h-29.824219c-3.253906 0-6-2.746094-6-6zm0 0"/><path d="m69.914062 100.644531c-5.523437 0-10 4.476563-10 10 0 5.519531 4.476563 10 10 10h17.269532c5.519531 0 10-4.480469 10-10 0-5.523437-4.480469-10-10-10zm0 0"/><path d="m223.140625 60.320312c0-14.761718-12.011719-26.773437-26.773437-26.773437h-126.453126c-14.765624 0-26.773437 12.011719-26.773437 26.773437 0 14.765626 12.011719 26.773438 26.773437 26.773438h126.453126c14.761718.003906 26.773437-12.007812 26.773437-26.773438zm-26.773437 6.777344h-126.453126c-3.671874 0-6.773437-3.105468-6.773437-6.777344 0-3.667968 3.101563-6.769531 6.773437-6.769531h126.453126c3.671874 0 6.773437 3.101563 6.773437 6.773438 0 3.667969-3.101563 6.773437-6.773437 6.773437zm0 0"/><path d="m468.859375 77.097656c0-24.015625-19.535156-43.550781-43.546875-43.550781s-43.546875 19.535156-43.546875 43.550781c0 24.011719 19.535156 43.546875 43.546875 43.546875s43.546875-19.539062 43.546875-43.546875zm-67.09375 0c0-12.984375 10.5625-23.550781 23.550781-23.550781 12.980469 0 23.546875 10.5625 23.546875 23.550781 0 12.980469-10.5625 23.546875-23.546875 23.546875-12.988281 0-23.550781-10.566406-23.550781-23.546875zm0 0"/><path d="m328.519531 33.546875h-46.453125c-14.761718 0-26.773437 12.011719-26.773437 26.773437 0 14.765626 12.011719 26.773438 26.773437 26.773438h46.453125c14.761719 0 26.773438-12.011719 26.773438-26.773438 0-14.761718-12.011719-26.773437-26.773438-26.773437zm0 33.546875h-46.453125c-3.671875 0-6.773437-3.101562-6.773437-6.773438 0-3.667968 3.101562-6.769531 6.773437-6.769531h46.453125c3.671875 0 6.773438 3.101563 6.773438 6.773438 0 3.667969-3.101563 6.769531-6.773438 6.769531zm0 0"/><path d="m179.097656 100.644531c-5.523437 0-10 4.476563-10 10 0 5.519531 4.476563 10 10 10h17.269532c5.523437 0 10-4.480469 10-10 0-5.523437-4.476563-10-10-10zm0 0"/><path d="m124.503906 100.644531c-5.519531 0-10 4.476563-10 10 0 5.519531 4.480469 10 10 10h17.269532c5.523437 0 10-4.480469 10-10 0-5.523437-4.476563-10-10-10zm0 0"/><path d="m265.292969 120.644531h17.269531c5.519531 0 10-4.480469 10-10 0-5.523437-4.480469-10-10-10h-17.269531c-5.523438 0-10 4.476563-10 10 0 5.519531 4.476562 10 10 10zm0 0"/><path d="m328.023438 100.644531c-5.523438 0-10 4.476563-10 10 0 5.519531 4.476562 10 10 10h17.269531c5.519531 0 10-4.480469 10-10 0-5.523437-4.480469-10-10-10zm0 0"/><path d="m482 0h-452c-16.542969 0-30 13.457031-30 30v40.675781c0 5.523438 4.476562 10 10 10s10-4.476562 10-10v-40.675781c0-5.515625 4.484375-10 10-10h452c5.515625 0 10 4.484375 10 10v280c0 5.515625-4.484375 10-10 10h-57.433594c-5.523437 0-10 4.476562-10 10s4.476563 10 10 10h57.433594c16.542969 0 30-13.457031 30-30v-280c0-16.542969-13.457031-30-30-30zm0 0"/><path d="m355.601562 320h-325.601562c-5.515625 0-10-4.484375-10-10v-170.355469c0-5.523437-4.476562-10-10-10s-10 4.476563-10 10v170.355469c0 16.542969 13.457031 30 30 30h325.601562c5.519532 0 10-4.476562 10-10s-4.480468-10-10-10zm0 0"/><path d="m10 120.910156c5.523438 0 10-4.476562 10-10v-.269531c0-5.519531-4.476562-10-10-10s-10 4.480469-10 10v.269531c0 5.523438 4.476562 10 10 10zm0 0"/><path d="m395.835938 320h-.269532c-5.523437 0-10 4.476562-10 10s4.476563 10 10 10h.269532c5.519531 0 10-4.476562 10-10s-4.480469-10-10-10zm0 0"/></symbol><symbol id="theatre" viewBox="0 -36 512 512"><title>theatre</title><g fill-rule="evenodd"><path d="m109.761719 119.988281 146.226562-68.789062 146.222657 68.789062h87.601562l-233.824219-110-233.828125 110zm0 0" fill="#ffeeda"/><path d="m255.988281 51.199219-146.226562 68.789062h292.449219zm0 0" fill="#53c9d8"/><path d="m255.988281 119.988281h-246c2.527344 7.859375 3.4375 13.890625 3.4375 20.835938 0 6.941406-1.226562 13.945312-3.4375 20.832031h492c-2.214843-6.886719-3.4375-13.890625-3.4375-20.832031 0-6.945313.910157-12.976563 3.4375-20.835938zm0 0" fill="#ffeeda"/><path d="m97.269531 278.753906-3.484375-117.097656h-47.597656l-6.199219 208.332031h60zm0 0" fill="#53c9d8"/><path d="m93.785156 161.65625 3.484375 117.097656c27.816407-10.355468 54.5625-68.660156 53.691407-117.097656zm0 0" fill="#fd4848"/><path d="m150.960938 161.65625c.871093 48.4375-25.875 106.742188-53.691407 117.097656l21.707031 3.351563c46.367188-10.355469 90.929688-72.011719 89.480469-120.449219zm0 0" fill="#fd4848"/><path d="m147.839844 369.988281c0-59.3125-28.863282-87.882812-28.863282-87.882812l-21.707031-3.351563 2.71875 91.234375zm0 0" fill="#fd4848"/><path d="m118.976562 282.105469s28.863282 28.570312 28.863282 87.882812h216.292968c0-59.3125 28.863282-87.882812 28.863282-87.882812-46.367188-10.355469-90.929688-72.011719-89.480469-120.449219h-95.0625c1.453125 48.4375-43.105469 110.09375-89.476563 120.449219zm0 0" fill="#ffcf33"/><path d="m303.519531 161.65625c-1.453125 48.4375 43.109375 110.09375 89.480469 120.449219l21.703125-3.351563c-27.8125-10.355468-54.558594-68.660156-53.691406-117.097656zm0 0" fill="#fd4848"/><path d="m361.011719 161.65625c-.871094 48.4375 25.875 106.742188 53.691406 117.097656l3.484375-117.097656zm0 0" fill="#fd4848"/><path d="m392.996094 282.105469s-28.863282 28.570312-28.863282 87.882812h47.855469l2.714844-91.234375zm0 0" fill="#fd4848"/><path d="m414.703125 278.753906-2.714844 91.234375h60l-6.203125-208.332031h-47.597656zm0 0" fill="#53c9d8"/><path d="m471.988281 369.988281h-432v30h432zm0 0" fill="#ffeeda"/><path d="m471.988281 399.988281h-447.003906c-8.246094 0-14.996094 6.75-14.996094 15v15h492v-15c0-8.25-6.75-15-15-15zm0 0" fill="#53c9d8"/></g><path d="m183.4375 54.144531c1.417969 0 2.859375-.304687 4.230469-.945312l.242187-.113281c5.003906-2.339844 7.160156-8.292969 4.820313-13.296876-2.339844-5-8.292969-7.15625-13.296875-4.816406l-.242188.113282c-5.003906 2.339843-7.160156 8.292968-4.820312 13.296874 1.699218 3.628907 5.304687 5.761719 9.066406 5.761719zm0 0"/><path d="m487.003906 390h-5.003906v-20c0-.054688-.007812-.109375-.007812-.167969 0-.042969.003906-.082031.003906-.128906l-5.894532-198.035156h25.898438c3.195312 0 6.199219-1.527344 8.082031-4.109375 1.882813-2.582032 2.414063-5.90625 1.4375-8.949219-1.960937-6.105469-2.957031-12.085937-2.957031-17.773437 0-6.167969.828125-11.152344 2.957031-17.773438.976563-3.039062.441407-6.367188-1.4375-8.949219-1.882812-2.582031-4.886719-4.109375-8.082031-4.109375h-9.9375l-231.804688-109.050781c-2.375-1.117187-4.96875-1.21875-7.285156-.480469h-.003906c-.007812.003906-.015625.007813-.023438.007813-.007812.003906-.011718.003906-.019531.007812-.003906 0-.007812.003907-.011719.003907-.148437.046874-.300781.101562-.445312.15625-.003906 0-.003906 0-.007812 0-.007813.003906-.015626.007812-.023438.011718-.003906 0-.011719.003906-.015625.007813-.003906 0-.007813 0-.011719.003906-.25.09375-.496094.199219-.738281.316406l-36.09375 16.976563c-4.996094 2.351562-7.140625 8.308594-4.789063 13.308594 2.351563 4.996093 8.308594 7.140624 13.304688 4.789062l31.90625-15.007812 189.078125 88.949218h-40.617187l-144.203126-67.839844c-2.695312-1.269531-5.816406-1.269531-8.515624 0l-144.203126 67.839844h-40.617187l94.765625-44.582031c5-2.351563 7.144531-8.308594 4.792969-13.304687-2.351563-5-8.304688-7.144532-13.304688-4.792969l-133.238281 62.679687h-9.9375c-3.195312 0-6.199219 1.527344-8.078125 4.109375-1.8867188 2.582031-2.417969 5.90625-1.441406 8.949219 2.128906 6.621094 2.957031 11.601562 2.957031 17.773438 0 5.6875-.992188 11.667968-2.957031 17.769531-.976563 3.042969-.4414065 6.371093 1.441406 8.953125 1.882813 2.582031 4.882813 4.109375 8.078125 4.109375h25.898438l-5.890626 198.035156c-.003906.046875.003907.09375 0 .140625 0 .054688-.007812.105469-.007812.15625v20h-5.003906c-13.78125 0-24.996094 11.21875-24.996094 25.003906v15c0 5.519532 4.476562 10 10 10h492c5.523438 0 10-4.480468 10-10v-15c0-13.785156-11.214844-25.003906-24.996094-25.003906zm-112.554687-30c2.378906-39.007812 18.152343-61.71875 23.683593-68.554688l6.230469-.960937-2.070312 69.515625zm-216.867188 0c-1.886719-35.386719-13.476562-59.492188-22.082031-72.75 19.527344-8.230469 38.710938-24.082031 54.214844-45.148438 16.515625-22.433593 26.582031-47.554687 28.460937-70.433593h75.648438c1.878906 22.878906 11.945312 48 28.460937 70.433593 15.503906 21.066407 34.683594 36.917969 54.214844 45.148438-8.605469 13.257812-20.195312 37.363281-22.082031 72.75zm-32.957031-89.949219c8.882812-10.472656 15.40625-22.785156 19.351562-31.382812 9.714844-21.1875 15.652344-45.070313 16.800782-67h37.328125c-4.003907 39.738281-38.046875 85.441406-73.480469 98.382812zm-17.894531-10.050781-2.628907-88.332031h36.667969c-2.035156 35.136719-17.679687 71.105469-34.039062 88.332031zm2.976562 100-2.070312-69.515625 6.226562.960937c5.566407 6.882813 21.3125 29.585938 23.6875 68.554688zm295.5625-99.996094c-16.359375-17.226562-32.003906-53.199218-34.039062-88.332031h36.667969zm-54.046875-88.335937c1.152344 21.929687 7.085938 45.8125 16.800782 67 3.945312 8.597656 10.46875 20.910156 19.351562 31.382812-35.433594-12.941406-69.476562-58.644531-73.480469-98.382812zm110.476563 188.332031h-39.398438l5.605469-188.332031h28.1875zm-205.699219-297.734375 101.476562 47.738281h-202.953124zm-233.335938 67.738281h466.671876c-.527344 3.542969-.773438 7.078125-.773438 10.832032 0 3.5625.277344 7.179687.828125 10.832031h-466.78125c.550781-3.652344.828125-7.269531.828125-10.832031 0-3.753907-.246094-7.289063-.773438-10.832032zm61.429688 41.664063 5.605469 188.332031h-39.394531l5.601562-188.332031zm407.90625 248.335937h-472v-5c0-2.710937 2.289062-5.003906 4.996094-5.003906h347.003906c5.523438 0 10-4.476562 10-10 0-5.519531-4.476562-10-10-10h-322v-9.996094h412v10h-21.035156c-5.523438 0-10 4.476563-10 10 0 5.519532 4.480468 10 10 10l31.023437-.003906c.003907 0 .007813.003906.011719.003906s.011719-.003906.015625-.003906h14.988281c2.707032 0 4.996094 2.292969 4.996094 5.003906zm0 0"/><path d="m412.234375 390.003906h-.269531c-5.523438 0-10 4.476563-10 10 0 5.519532 4.476562 10 10 10h.269531c5.523437 0 10-4.480468 10-10 0-5.523437-4.476563-10-10-10zm0 0"/></symbol></svg>